<?xml version="1.0" standalone="no"?>
<!DOCTYPE svg PUBLIC "-//W3C//DTD SVG 20010904//EN"
 "http://www.w3.org/TR/2001/REC-SVG-20010904/DTD/svg10.dtd">
<svg version="1.0" xmlns="http://www.w3.org/2000/svg"
 width="707.000000pt" height="707.000000pt" viewBox="0 0 707.000000 707.000000"
 preserveAspectRatio="xMidYMid meet">
<metadata>
Created by potrace 1.14, written by Peter Selinger 2001-2017
</metadata>
<g transform="translate(0.000000,707.000000) scale(0.100000,-0.100000)"
fill="#000000" stroke="none">
<path d="M2988 6453 c17 -2 47 -2 65 0 17 2 3 4 -33 4 -36 0 -50 -2 -32 -4z"/>
<path d="M3208 6453 c12 -2 32 -2 45 0 12 2 2 4 -23 4 -25 0 -35 -2 -22 -4z"/>
<path d="M3468 6423 c6 -2 18 -2 25 0 6 3 1 5 -13 5 -14 0 -19 -2 -12 -5z"/>
<path d="M4250 6096 c0 -2 8 -10 18 -17 15 -13 16 -12 3 4 -13 16 -21 21 -21
13z"/>
<path d="M4300 6056 c0 -2 8 -10 18 -17 15 -13 16 -12 3 4 -13 16 -21 21 -21
13z"/>
<path d="M4350 6016 c0 -2 8 -10 18 -17 15 -13 16 -12 3 4 -13 16 -21 21 -21
13z"/>
<path d="M1789 5883 l-24 -28 28 24 c25 23 32 31 24 31 -2 0 -14 -12 -28 -27z"/>
<path d="M2094 5838 l-29 -33 33 29 c17 17 32 31 32 33 0 8 -8 1 -36 -29z"/>
<path d="M3146 5857 c-291 -32 -614 -194 -847 -424 -100 -98 -122 -115 -155
-120 -38 -4 -41 -2 -128 87 l-88 91 4 47 c6 57 44 138 99 212 39 52 37 51 -31
-20 -151 -158 -186 -190 -213 -196 -34 -7 -81 20 -73 42 4 11 1 14 -13 9 -25
-8 -53 21 -51 54 4 53 -1 55 -25 11 -33 -62 -62 -161 -70 -244 -4 -38 -9 -75
-12 -83 -4 -9 -30 -13 -95 -13 -100 0 -152 -12 -189 -42 l-24 -20 29 17 c17
10 31 13 35 7 3 -5 24 -12 46 -16 65 -11 72 -15 85 -46 13 -32 12 -36 -39 -94
l-26 -28 55 27 c39 20 71 28 111 29 l56 1 91 -92 c65 -66 93 -101 101 -129 14
-50 14 -55 -4 -90 -23 -47 -45 -168 -45 -248 0 -94 20 -206 71 -403 30 -117
42 -185 46 -263 6 -127 0 -138 -110 -198 -39 -22 -98 -63 -129 -90 -105 -92
-128 -81 -128 63 0 50 -7 146 -15 213 -31 248 -76 373 -166 462 -85 83 -115
177 -106 329 4 53 9 107 12 121 3 14 -1 9 -9 -11 -29 -74 -45 -273 -39 -468
l6 -185 -30 22 c-25 17 -34 36 -55 119 -15 54 -32 133 -39 176 -16 107 -6 338
19 442 11 44 19 81 17 83 -5 5 -52 -157 -64 -218 -33 -174 -38 -337 -17 -556
8 -82 17 -187 21 -234 3 -47 13 -161 22 -255 21 -231 13 -365 -38 -650 -46
-261 -61 -493 -40 -607 29 -150 92 -271 219 -421 129 -152 172 -207 215 -274
107 -166 228 -294 485 -516 94 -81 182 -162 196 -180 44 -59 76 -134 76 -179
0 -58 -66 -188 -154 -306 -37 -50 -65 -96 -61 -102 9 -15 49 -12 133 11 197
54 332 121 421 210 31 30 79 70 106 89 28 18 70 51 93 73 38 33 48 38 75 33
138 -28 273 -13 380 41 57 28 152 114 173 155 12 24 21 28 55 28 32 0 50 -7
82 -35 39 -34 44 -35 119 -35 65 0 89 5 141 28 93 43 159 100 194 168 22 44
40 64 68 78 36 18 39 18 64 2 63 -41 148 -76 186 -76 67 0 154 18 208 43 64
29 141 105 170 166 29 59 59 71 125 48 66 -24 157 -31 227 -18 78 14 195 72
232 115 29 33 32 33 129 38 61 3 111 11 129 20 20 11 76 18 175 23 81 4 176
15 215 25 39 10 72 14 75 10 8 -13 109 34 138 65 21 21 23 26 8 21 -10 -3 -25
-1 -33 6 -12 10 -13 7 -8 -15 6 -23 4 -27 -14 -27 -18 0 -20 3 -13 17 17 33 7
77 -25 111 -44 46 -78 107 -110 198 -25 73 -27 91 -27 224 1 160 -3 142 122
550 93 304 128 509 114 670 l-7 85 -6 -116 c-8 -137 -30 -225 -59 -234 -11 -4
-20 -13 -20 -21 0 -8 -7 -17 -15 -21 -9 -3 -29 -25 -46 -49 -16 -24 -35 -44
-41 -44 -6 0 -8 3 -5 7 4 3 1 13 -7 22 -8 9 -19 55 -25 103 -6 56 -19 105 -36
137 -14 28 -35 90 -47 138 -17 69 -55 154 -173 388 -83 165 -172 332 -197 370
-75 117 -76 130 -15 203 21 26 25 37 17 52 -12 22 -14 50 -2 35 4 -5 21 -21
37 -35 17 -13 -1 8 -39 47 -38 40 -70 82 -71 94 -1 11 9 37 22 56 49 72 114
232 112 277 0 12 -6 0 -13 -25 -28 -104 -92 -168 -181 -180 -130 -18 -373 65
-529 180 -35 26 -89 60 -118 75 -84 42 -179 118 -348 277 -182 172 -232 213
-337 275 -279 165 -521 229 -767 201z m506 -667 c10 -6 23 -10 29 -10 21 0
236 -110 304 -156 88 -59 167 -127 325 -281 69 -67 142 -136 162 -155 l37 -33
-82 0 c-60 0 -107 -8 -177 -28 -140 -41 -385 -136 -409 -158 -29 -27 -27 -65
5 -94 37 -34 80 -32 189 11 124 49 335 121 380 130 20 3 71 1 112 -6 70 -12
77 -12 89 5 7 10 11 22 8 26 -11 19 13 7 49 -24 31 -27 39 -42 49 -93 6 -34 8
-69 5 -78 -8 -20 -53 -21 -127 -1 -67 18 -194 18 -390 1 -129 -11 -152 -16
-205 -43 -102 -53 -171 -142 -190 -245 -9 -47 21 -251 44 -303 25 -56 70 -95
117 -102 l39 -6 -22 22 c-19 18 -23 32 -23 89 0 37 5 85 12 107 l12 40 7 -55
c10 -82 48 -145 117 -192 45 -31 46 -31 111 -20 82 14 182 46 159 50 -28 5
-20 33 21 80 44 48 81 57 81 19 0 -13 -7 -32 -15 -43 -21 -28 -18 -35 8 -23
60 27 79 196 33 286 -39 78 -136 153 -197 153 -38 0 -18 19 27 26 113 17 243
-25 320 -103 54 -56 65 -87 48 -137 l-15 -41 31 35 c17 19 37 47 45 62 9 15
33 37 54 48 l39 19 14 -22 c24 -38 68 -147 68 -169 0 -11 16 -59 35 -107 55
-140 76 -299 54 -416 -5 -27 -18 -129 -29 -225 -32 -288 -57 -369 -169 -550
-26 -41 -76 -127 -111 -190 -82 -149 -110 -188 -252 -351 -164 -190 -222 -236
-347 -273 -63 -18 -167 -21 -243 -5 -169 34 -468 134 -621 208 -67 32 -166 78
-220 101 -150 65 -238 138 -358 297 -41 54 -124 150 -185 213 -201 208 -250
287 -283 453 -22 112 -34 238 -25 262 9 22 102 29 149 12 22 -9 53 -18 70 -22
l30 -7 -29 27 c-24 22 -27 31 -22 63 21 116 88 225 173 283 l48 32 -26 -29
c-102 -112 -98 -283 10 -391 18 -18 44 -36 58 -39 30 -8 161 3 220 18 35 8 41
13 34 26 -7 12 1 29 27 64 42 53 59 63 78 47 11 -9 11 -17 -2 -47 -8 -20 -22
-44 -31 -54 -9 -10 -13 -18 -9 -18 21 0 48 25 73 68 25 41 28 57 28 132 0 69
-5 93 -23 127 -28 54 -86 111 -137 134 l-40 19 43 0 c23 0 75 -12 114 -27 141
-55 262 -221 206 -283 -7 -7 7 -2 32 12 100 57 114 131 55 292 -44 123 -76
177 -125 211 -61 42 -107 54 -211 55 l-97 0 -110 -55 c-61 -30 -153 -75 -206
-99 -98 -46 -177 -94 -231 -142 -86 -76 -132 -97 -161 -73 -15 12 -84 151 -84
169 0 6 -4 10 -9 10 -11 0 -16 18 -80 255 -64 240 -86 365 -86 495 l0 115 43
86 c45 92 139 196 204 230 85 44 288 94 583 144 234 40 501 105 755 184 25 8
106 -9 142 -29z m516 -1286 c26 -18 29 -60 5 -86 -20 -22 -42 -23 -71 -2 -26
18 -28 50 -6 82 18 26 41 28 72 6z m-2789 -299 c22 -24 41 -55 42 -67 3 -61
-6 -101 -42 -193 -49 -127 -76 -234 -89 -360 -28 -265 -63 -415 -100 -435 -44
-24 -70 -8 -104 64 -16 34 -18 57 -14 175 6 159 25 241 119 511 34 96 72 210
85 253 13 43 26 83 29 88 12 18 33 8 74 -36z m1319 -121 c42 -29 18 -104 -35
-104 -25 0 -63 32 -63 54 0 21 40 66 59 66 9 0 27 -7 39 -16z m2449 -198 c4
-28 2 -46 -4 -46 -11 0 -23 46 -23 88 0 43 22 10 27 -42z m-4115 -679 c2 -102
0 -183 -3 -181 -4 2 -18 23 -30 46 -22 40 -24 54 -24 203 0 88 4 174 9 190 l8
30 18 -52 c15 -41 19 -91 22 -236z m4727 -249 c27 -157 108 -344 199 -456 19
-24 32 -45 29 -48 -9 -9 -106 34 -141 63 -51 42 -144 168 -158 214 -9 31 -9
63 0 137 11 91 40 208 49 198 3 -3 13 -51 22 -108z m-3659 22 c0 -10 -4 -22
-10 -25 -6 -4 -10 7 -10 25 0 18 4 29 10 25 6 -3 10 -15 10 -25z"/>
<path d="M2820 4111 c-257 -50 -400 -90 -485 -138 -63 -35 -155 -149 -155
-193 0 -16 31 -40 53 -40 11 0 47 20 79 45 31 25 77 54 101 65 50 22 203 62
327 85 313 58 282 49 314 82 28 28 36 89 14 111 -18 18 -88 13 -248 -17z"/>
<path d="M3772 3658 c2 -12 10 -23 18 -23 22 0 19 39 -3 43 -15 3 -18 -1 -15
-20z"/>
<path d="M3450 3614 c0 -9 5 -14 12 -12 18 6 21 28 4 28 -9 0 -16 -7 -16 -16z"/>
<path d="M3815 3560 c-7 -12 2 -30 16 -30 12 0 12 27 0 35 -5 3 -12 1 -16 -5z"/>
<path d="M4035 3420 c-7 -12 30 -50 50 -50 22 0 18 27 -7 44 -26 18 -35 20
-43 6z"/>
<path d="M3640 3335 c-10 -12 -9 -16 4 -21 18 -7 49 13 40 27 -8 14 -30 11
-44 -6z"/>
<path d="M3870 3341 c0 -11 29 -35 35 -29 10 9 -7 38 -21 38 -8 0 -14 -4 -14
-9z"/>
<path d="M3467 3277 c-3 -8 -1 -20 4 -28 11 -19 32 2 23 24 -7 20 -20 22 -27
4z"/>
<path d="M3992 3173 c49 -52 68 -93 68 -149 0 -43 -4 -51 -47 -94 -68 -67
-143 -94 -246 -87 -91 6 -116 19 -153 83 -23 39 -27 57 -26 115 1 42 -3 69 -9
69 -24 0 -53 -94 -54 -171 0 -66 3 -81 28 -117 42 -64 91 -92 176 -99 124 -10
258 36 333 115 89 93 73 230 -37 331 -56 51 -82 54 -33 4z"/>
<path d="M4578 3014 c-32 -17 -46 -57 -28 -79 11 -13 9 -20 -11 -41 -38 -42
-125 -97 -249 -159 -63 -31 -152 -81 -197 -111 -138 -89 -130 -87 -315 -95
-91 -4 -217 -15 -280 -25 -116 -18 -339 -25 -371 -12 -15 6 -16 11 -5 28 32
50 -56 80 -119 40 -18 -11 -33 -24 -33 -30 0 -5 13 -24 29 -42 26 -28 33 -31
49 -21 18 10 22 7 38 -30 22 -48 154 -181 232 -233 60 -40 164 -85 255 -110
34 -10 64 -21 67 -25 10 -13 85 -29 143 -29 57 0 106 12 282 72 50 16 106 33
125 37 68 15 137 67 188 143 106 157 136 204 153 243 28 62 58 203 65 308 6
76 9 87 26 87 20 0 38 36 38 76 0 20 -5 24 -27 24 -16 -1 -40 -7 -55 -16z
m-250 -566 c6 -32 -132 -134 -238 -176 -137 -54 -207 -67 -365 -67 -156 0
-209 7 -202 28 2 6 19 15 38 19 175 36 298 64 374 85 99 28 314 109 330 124
16 15 59 6 63 -13z"/>
<path d="M3050 3000 c0 -5 4 -10 9 -10 6 0 13 5 16 10 3 6 -1 10 -9 10 -9 0
-16 -4 -16 -10z"/>
<path d="M3174 2955 c-15 -10 -16 -16 -7 -26 14 -15 43 -5 43 15 0 22 -15 27
-36 11z"/>
<path d="M4555 5810 c21 -22 41 -40 44 -40 3 0 -13 18 -34 40 -21 22 -41 40
-44 40 -3 0 13 -18 34 -40z"/>
<path d="M1859 5803 c-13 -15 -12 -15 9 -4 23 12 28 21 13 21 -5 0 -15 -7 -22
-17z"/>
<path d="M1801 5739 c-43 -53 -36 -60 8 -8 18 22 31 42 29 45 -3 2 -19 -14
-37 -37z"/>
<path d="M4600 5756 c0 -2 8 -10 18 -17 15 -13 16 -12 3 4 -13 16 -21 21 -21
13z"/>
<path d="M4654 5685 c29 -43 99 -186 93 -191 -4 -5 -67 72 -67 81 0 4 -11 19
-24 33 -13 15 -38 43 -55 62 -38 42 157 -253 222 -336 52 -68 114 -128 140
-138 13 -4 6 9 -20 41 -22 27 -63 93 -92 148 -58 109 -183 306 -208 327 -8 7
-3 -5 11 -27z"/>
<path d="M1710 5610 c0 -5 5 -10 10 -10 6 0 10 5 10 10 0 6 -4 10 -10 10 -5 0
-10 -4 -10 -10z"/>
<path d="M1179 5193 c-13 -16 -12 -17 4 -4 16 13 21 21 13 21 -2 0 -10 -8 -17
-17z"/>
<path d="M5380 5148 c-50 -74 -80 -93 -143 -91 -48 2 -49 2 -29 -13 51 -36 79
-38 127 -10 25 15 52 37 59 49 14 21 33 117 24 117 -2 0 -19 -23 -38 -52z"/>
<path d="M5010 5165 c13 -14 26 -25 28 -25 3 0 -5 11 -18 25 -13 14 -26 25
-28 25 -3 0 5 -11 18 -25z"/>
<path d="M1150 5150 c-6 -11 -8 -20 -6 -20 3 0 10 9 16 20 6 11 8 20 6 20 -3
0 -10 -9 -16 -20z"/>
<path d="M5442 5125 c0 -16 2 -22 5 -12 2 9 2 23 0 30 -3 6 -5 -1 -5 -18z"/>
<path d="M5054 5131 c7 -11 46 -35 46 -28 0 3 -12 12 -26 22 -15 9 -23 12 -20
6z"/>
<path d="M5110 5095 c0 -7 61 -37 66 -33 2 3 -12 12 -31 21 -19 9 -35 15 -35
12z"/>
<path d="M5515 4490 c33 -33 62 -60 64 -60 3 0 -21 27 -54 60 -33 33 -62 60
-64 60 -3 0 21 -27 54 -60z"/>
<path d="M5690 4317 c0 -2 15 -16 33 -33 l32 -29 -29 33 c-28 30 -36 37 -36
29z"/>
<path d="M5775 4220 c10 -11 20 -20 23 -20 3 0 -3 9 -13 20 -10 11 -20 20 -23
20 -3 0 3 -9 13 -20z"/>
<path d="M5800 4186 c0 -2 8 -10 18 -17 15 -13 16 -12 3 4 -13 16 -21 21 -21
13z"/>
<path d="M5830 4146 c0 -2 8 -10 18 -17 15 -13 16 -12 3 4 -13 16 -21 21 -21
13z"/>
<path d="M6011 3794 c0 -11 3 -14 6 -6 3 7 2 16 -1 19 -3 4 -6 -2 -5 -13z"/>
<path d="M6041 3674 c0 -11 3 -14 6 -6 3 7 2 16 -1 19 -3 4 -6 -2 -5 -13z"/>
</g>
</svg>
