<?xml version="1.0" standalone="no"?>
<!DOCTYPE svg PUBLIC "-//W3C//DTD SVG 20010904//EN"
 "http://www.w3.org/TR/2001/REC-SVG-20010904/DTD/svg10.dtd">
<svg version="1.0" xmlns="http://www.w3.org/2000/svg"
 width="710.000000pt" height="710.000000pt" viewBox="0 0 710.000000 710.000000"
 preserveAspectRatio="xMidYMid meet">
<metadata>
Created by potrace 1.14, written by Peter Selinger 2001-2017
</metadata>
<g transform="translate(0.000000,710.000000) scale(0.100000,-0.100000)"
fill="#000000" stroke="none">
<path d="M5240 5728 c0 -33 -23 -90 -48 -119 -22 -27 -23 -30 -6 -21 12 6 29
23 38 37 17 25 34 115 22 115 -3 0 -6 -6 -6 -12z"/>
<path d="M3730 5669 c-47 -4 -159 -13 -250 -18 -292 -19 -529 -79 -825 -210
-22 -10 -62 -26 -90 -35 -75 -24 -205 -103 -290 -175 -44 -37 -85 -63 -98 -63
-25 0 -114 38 -137 57 -39 33 -272 146 -320 155 -71 14 -91 28 -123 90 -31 60
-32 70 -12 113 15 30 14 30 -22 -10 -21 -24 -43 -43 -49 -43 -33 0 -110 -175
-120 -274 -8 -79 -31 -116 -73 -116 -15 0 -36 -7 -47 -16 -10 -8 -12 -12 -4
-8 13 7 13 5 1 -9 -12 -15 -10 -17 28 -17 23 0 58 -7 78 -15 60 -25 183 -122
183 -145 0 -4 -11 -12 -25 -18 -41 -19 -29 -29 40 -34 51 -3 73 -10 107 -34
52 -37 97 -98 104 -144 l6 -35 -94 -18 c-70 -13 -121 -31 -207 -74 -107 -53
-116 -56 -145 -44 -48 20 -95 30 -168 37 -62 5 -68 8 -68 28 0 24 54 80 165
171 33 27 64 52 69 56 10 9 -49 -5 -86 -19 -15 -6 -57 -30 -92 -52 -36 -23
-70 -39 -76 -35 -26 16 4 208 40 256 23 32 26 47 6 30 -11 -9 -15 -9 -18 1 -8
22 -86 -90 -107 -154 -11 -35 -32 -115 -47 -178 -23 -100 -25 -129 -20 -220
12 -206 56 -389 142 -591 31 -74 63 -161 71 -194 25 -101 172 -553 225 -688
28 -70 48 -137 45 -148 -3 -12 0 -19 9 -19 18 0 134 -60 158 -82 30 -28 71
-240 50 -261 -4 -3 -37 27 -75 67 -67 71 -164 136 -206 136 -10 0 -24 5 -31
12 -6 6 -15 8 -19 4 -11 -10 -10 -131 1 -181 7 -36 9 -38 17 -17 10 27 24 27
92 2 82 -31 117 -76 166 -213 39 -111 62 -157 121 -237 26 -36 52 -75 58 -86
22 -42 -22 -36 -121 17 -51 27 -95 49 -99 49 -8 0 -3 -75 11 -165 5 -33 10
-67 10 -75 1 -8 8 -23 16 -34 12 -16 16 -17 35 -3 16 11 29 12 58 5 74 -20
105 -20 163 -3 99 30 117 19 359 -224 177 -179 312 -299 434 -387 64 -47 290
-178 325 -189 13 -4 73 -31 135 -60 297 -140 622 -213 909 -202 151 5 217 23
332 90 173 100 391 298 519 471 230 312 363 545 436 768 44 134 55 193 65 338
6 85 10 99 37 133 27 34 48 84 48 112 0 5 -12 -10 -26 -34 -33 -54 -39 -45
-48 69 -4 47 -13 123 -21 170 -24 148 -37 350 -24 395 17 64 78 117 93 83 3
-7 3 10 0 37 -8 75 -33 155 -47 155 -16 0 -43 -52 -73 -145 -13 -38 -23 -67
-24 -64 0 4 -9 51 -20 105 -18 84 -19 106 -9 142 6 23 16 45 21 48 5 3 4 12
-3 20 -7 9 -10 32 -6 62 10 94 -21 438 -65 702 -16 99 -20 164 -19 310 2 197
-16 344 -57 460 -10 30 -16 62 -13 71 3 8 37 44 74 79 59 55 97 104 97 125 0
3 -19 -14 -42 -38 -51 -53 -135 -87 -212 -87 -29 0 -106 13 -170 30 -120 30
-157 48 -505 242 -119 66 -246 111 -375 133 -95 16 -107 16 -236 4z m666 -695
c132 -49 256 -121 303 -177 14 -17 34 -38 44 -47 54 -47 65 -64 94 -162 48
-157 85 -334 76 -368 -3 -9 7 -70 22 -134 14 -64 28 -163 31 -219 3 -56 7
-110 10 -119 7 -25 -4 -55 -22 -62 -9 -3 -50 3 -92 13 -42 11 -126 22 -185 26
-60 4 -124 13 -142 21 -118 49 -372 -32 -496 -158 -98 -99 -121 -224 -80 -426
29 -139 68 -191 148 -200 l48 -5 -29 23 c-27 22 -28 26 -23 89 5 69 30 157 51
179 10 10 13 -1 14 -54 3 -103 53 -198 133 -251 43 -28 66 -28 202 4 56 14 67
20 67 37 0 25 88 116 112 116 27 0 34 -29 15 -62 -14 -24 -14 -28 -2 -28 75 0
112 219 56 333 -32 66 -102 133 -161 154 -27 9 -46 21 -44 25 8 12 103 9 165
-6 32 -7 77 -25 102 -39 52 -31 127 -111 151 -161 15 -32 15 -39 2 -71 l-15
-36 44 37 c25 20 45 40 45 45 0 12 68 42 80 34 5 -3 16 -18 24 -33 24 -46 115
-332 131 -411 28 -135 18 -313 -24 -424 -6 -15 -20 -98 -31 -184 -38 -288 -97
-444 -238 -630 -32 -43 -92 -127 -132 -188 -96 -146 -112 -164 -296 -347 -238
-234 -292 -274 -416 -303 -131 -31 -249 -14 -505 72 -211 70 -302 109 -428
182 -55 32 -147 82 -205 111 -128 64 -206 119 -286 202 -70 72 -153 179 -179
229 -31 60 -111 172 -160 224 -130 138 -250 296 -294 388 -41 86 -83 444 -62
525 12 41 13 42 34 27 12 -9 43 -15 74 -15 29 0 74 -8 100 -19 26 -10 61 -21
78 -25 l30 -8 -28 22 c-34 27 -35 61 -2 142 43 106 131 199 245 258 21 11 19
7 -12 -28 -61 -67 -81 -116 -86 -210 -4 -77 -2 -87 27 -145 17 -34 43 -75 57
-91 25 -29 28 -29 147 -34 127 -4 194 6 189 28 -4 18 98 120 120 120 40 0 34
-50 -11 -99 -27 -29 -28 -31 -8 -26 33 9 84 71 101 123 23 66 20 176 -5 232
-27 60 -63 105 -113 142 l-41 31 34 -7 c108 -20 241 -128 296 -241 26 -52 28
-75 10 -118 -6 -15 0 -14 40 8 58 30 71 46 90 111 14 47 14 61 -5 190 -24 162
-32 186 -79 237 -68 75 -170 107 -342 107 -63 0 -132 -5 -154 -11 -50 -13
-118 -44 -136 -61 -32 -31 -79 -56 -154 -83 -108 -38 -199 -86 -265 -140 -30
-25 -83 -60 -117 -77 -60 -32 -62 -32 -82 -14 -11 10 -23 32 -26 50 -4 17 -29
76 -55 131 -27 55 -56 123 -64 150 -9 28 -25 58 -36 68 -11 9 -22 29 -26 44
-3 15 -22 70 -40 121 -19 51 -39 116 -44 145 -6 29 -19 88 -30 132 -20 76 -20
86 -6 183 21 149 72 240 207 373 155 150 336 232 604 273 227 34 379 55 540
76 289 37 541 87 850 169 125 34 166 40 248 41 91 0 105 -3 223 -46z m-27
-1628 c29 -31 25 -73 -10 -99 -32 -23 -62 -16 -85 19 -14 20 -14 29 -4 54 22
54 63 64 99 26z m-1696 -334 c38 -33 6 -112 -46 -112 -66 0 -92 79 -40 119 28
23 54 21 86 -7z m-858 -1129 c14 -21 25 -48 25 -60 0 -52 -65 -78 -125 -51
-29 13 -31 25 -8 58 16 24 74 90 80 90 1 0 14 -17 28 -37z m-125 -17 c0 -2 -8
-10 -17 -17 -16 -13 -17 -12 -4 4 13 16 21 21 21 13z"/>
<path d="M4655 4032 c-122 -14 -584 -158 -622 -195 -34 -31 -31 -79 8 -111 18
-15 43 -26 60 -26 17 0 117 29 222 64 319 108 388 120 497 91 64 -17 88 -12
96 20 20 80 -133 172 -261 157z"/>
<path d="M2860 3659 c-434 -27 -592 -66 -687 -169 -76 -82 -93 -129 -54 -150
32 -17 62 -12 110 19 65 42 130 70 193 81 84 16 314 40 391 41 135 1 295 23
325 46 32 24 47 61 39 95 -13 49 -53 54 -317 37z"/>
<path d="M3884 3106 c-8 -21 3 -36 27 -36 15 0 20 6 17 22 -4 27 -35 37 -44
14z"/>
<path d="M3520 3074 c0 -9 7 -14 17 -12 25 5 28 28 4 28 -12 0 -21 -6 -21 -16z"/>
<path d="M3920 2986 c0 -18 16 -29 30 -21 13 8 1 35 -16 35 -8 0 -14 -6 -14
-14z"/>
<path d="M4155 2820 c-10 -16 14 -49 41 -56 34 -9 41 2 18 27 -26 29 -51 41
-59 29z"/>
<path d="M3728 2773 c-23 -6 -31 -32 -11 -40 17 -7 44 6 50 24 5 13 -16 21
-39 16z"/>
<path d="M3970 2748 c0 -16 19 -38 33 -38 4 0 7 10 5 22 -3 25 -38 39 -38 16z"/>
<path d="M3505 2721 c-8 -25 7 -47 24 -37 14 9 14 18 -3 41 -13 18 -14 18 -21
-4z"/>
<path d="M4100 2567 c0 -2 16 -34 35 -73 58 -114 45 -193 -41 -256 -74 -54
-138 -72 -242 -66 -97 6 -136 21 -176 68 -28 34 -60 101 -71 149 -8 39 -24 36
-47 -10 -50 -97 13 -264 118 -314 80 -38 246 -38 358 0 70 24 151 88 176 140
46 95 20 237 -60 328 -27 31 -50 47 -50 34z"/>
<path d="M3015 2439 c-10 -15 3 -25 16 -12 7 7 7 13 1 17 -6 3 -14 1 -17 -5z"/>
<path d="M3140 2355 c-15 -18 -6 -45 13 -45 8 0 20 7 27 15 10 12 10 18 0 30
-16 19 -24 19 -40 0z"/>
<path d="M4733 2285 c-36 -15 -49 -45 -33 -75 9 -17 8 -25 -5 -40 -25 -28
-153 -91 -300 -150 -71 -28 -186 -81 -255 -118 l-125 -67 -230 0 c-126 -1
-322 -4 -435 -9 -113 -4 -225 -4 -250 1 -44 9 -45 9 -42 45 3 34 1 38 -30 46
-54 15 -118 -19 -118 -63 0 -31 24 -49 58 -42 25 5 29 2 41 -36 28 -92 208
-290 326 -359 140 -83 384 -168 478 -168 71 0 238 29 347 59 41 12 86 21 99
21 34 0 139 61 183 107 66 68 178 226 218 308 22 44 47 114 56 155 36 164 43
207 44 245 0 36 4 42 37 60 45 24 52 46 24 74 -24 24 -44 26 -88 6z m-329
-594 c50 -55 -52 -130 -268 -195 -198 -60 -400 -80 -555 -55 -77 13 -100 26
-103 60 -3 23 1 24 72 32 330 34 598 87 740 147 80 34 92 35 114 11z"/>
</g>
</svg>
